<svg xmlns="http://www.w3.org/2000/svg" viewBox="0 0 760 350" width="760" height="350" font-family="Helvetica, Arial, sans-serif" font-size="12">
<rect width="760" height="350" fill="#ffffff"/>
<text x="222.5" y="22" text-anchor="middle" fill="#222" font-weight="bold">P controller (static ball)</text>
<line x1="60.0" y1="272.0" x2="385.0" y2="272.0" stroke="#e3e6ea"/>
<text x="52.0" y="276.0" text-anchor="end" fill="#444">0</text>
<line x1="60.0" y1="194.7" x2="385.0" y2="194.7" stroke="#e3e6ea"/>
<text x="52.0" y="198.7" text-anchor="end" fill="#444">30</text>
<line x1="60.0" y1="117.3" x2="385.0" y2="117.3" stroke="#e3e6ea"/>
<text x="52.0" y="121.3" text-anchor="end" fill="#444">60</text>
<line x1="60.0" y1="40.0" x2="385.0" y2="40.0" stroke="#e3e6ea"/>
<text x="52.0" y="44.0" text-anchor="end" fill="#444">90</text>
<line x1="60.0" y1="272" x2="385.0" y2="272" stroke="#444"/><line x1="60.0" y1="40" x2="60.0" y2="272" stroke="#444"/>
<polyline points="60.0,40.0 72.5,63.2 85.0,122.5 97.5,174.0 110.0,215.3 122.5,230.8 135.0,156.0 147.5,73.5 160.0,94.1 172.5,138.0 185.0,199.8 197.5,248.8 210.0,210.1 222.5,40.0 235.0,40.0 247.5,40.0 260.0,68.4 272.5,122.5 285.0,174.0 297.5,233.3 310.0,248.8 322.5,40.0 335.0,40.0 347.5,40.0 360.0,40.0 372.5,40.0 385.0,40.0" fill="none" stroke="#1f5fbf" stroke-width="2"/>
<polyline points="60.0,52.9 72.5,40.0 85.0,40.0 97.5,40.0 110.0,40.0 122.5,40.0 135.0,40.0 147.5,40.0 160.0,40.0 172.5,40.0 185.0,40.0 197.5,40.0 210.0,40.0 222.5,40.0 235.0,86.4 247.5,63.2 260.0,40.0 272.5,40.0 285.0,40.0 297.5,40.0 310.0,40.0 322.5,55.5 335.0,217.9 347.5,189.5 360.0,150.8 372.5,86.4 385.0,52.9" fill="none" stroke="#c0392b" stroke-width="2"/>
<text x="222.5" y="292" text-anchor="middle" fill="#222">Guidance update</text>
<text x="577.5" y="22" text-anchor="middle" fill="#222" font-weight="bold">PI controller (static ball)</text>
<line x1="415.0" y1="272.0" x2="740.0" y2="272.0" stroke="#e3e6ea"/>
<line x1="415.0" y1="194.7" x2="740.0" y2="194.7" stroke="#e3e6ea"/>
<line x1="415.0" y1="117.3" x2="740.0" y2="117.3" stroke="#e3e6ea"/>
<line x1="415.0" y1="40.0" x2="740.0" y2="40.0" stroke="#e3e6ea"/>
<line x1="415.0" y1="272" x2="740.0" y2="272" stroke="#444"/><line x1="415.0" y1="40" x2="415.0" y2="272" stroke="#444"/>
<polyline points="415.0,202.4 424.8,210.1 434.7,210.1 444.5,205.0 454.4,197.2 464.2,197.2 474.1,202.4 483.9,205.0 493.8,205.0 503.6,202.4 513.5,199.8 523.3,197.2 533.2,202.4 543.0,205.0 552.9,205.0 562.7,199.8 572.6,194.7 582.4,192.1 592.3,107.0 602.1,186.9 612.0,212.7 621.8,220.4 631.7,192.1 641.5,179.2 651.4,176.6 661.2,179.2 671.1,179.2 680.9,181.8 690.8,186.9 700.6,197.2 710.5,217.9 720.3,238.5 730.2,230.8 740.0,192.1" fill="none" stroke="#1f5fbf" stroke-width="2"/>
<polyline points="415.0,109.6 424.8,104.4 434.7,104.4 444.5,109.6 454.4,117.3 464.2,117.3 474.1,112.2 483.9,109.6 493.8,109.6 503.6,112.2 513.5,114.8 523.3,117.3 533.2,112.2 543.0,109.6 552.9,109.6 562.7,114.8 572.6,119.9 582.4,122.5 592.3,207.6 602.1,127.6 612.0,101.9 621.8,94.1 631.7,122.5 641.5,135.4 651.4,138.0 661.2,135.4 671.1,135.4 680.9,132.8 690.8,127.6 700.6,117.3 710.5,96.7 720.3,76.1 730.2,83.8 740.0,122.5" fill="none" stroke="#c0392b" stroke-width="2"/>
<text x="577.5" y="292" text-anchor="middle" fill="#222">Guidance update</text>
<text transform="translate(16 156.0) rotate(-90)" text-anchor="middle" fill="#222">Wheel command (0 stop, 90 full)</text>
<line x1="310.0" y1="330" x2="326.0" y2="330" stroke="#1f5fbf" stroke-width="2"/><text x="330.0" y="334" fill="#222">left wheel</text><line x1="400.0" y1="330" x2="416.0" y2="330" stroke="#c0392b" stroke-width="2"/><text x="420.0" y="334" fill="#222">right wheel</text></svg>